<svg xmlns="http://www.w3.org/2000/svg" viewBox="0 0 119.5 119.5" shape-rendering="geometricPrecision" image-rendering="optimizeQuality" fill-rule="evenodd"
  xmlns:v="https://vecta.io/nano">
  <path d="M53.04 94.3c.87-3.59 4.9-43.29 4.68-46.44-5.81-.12-17.89-1.48-21.6 1.9-8.8 8.03-5.66 33.46 12.83 43.4.64.34 1.35.72 1.85.92.91.37 1.1.66 2.24.22zm8.13-46.5c-1.04 2.31 1.65 21.18 1.95 23.71.88 7.46 1.33 15.88 2.69 23.08 4.39-.43 10.08-5.79 12.24-8.07 7.28-7.68 11.2-20.23 7.86-30.78-2.49-7.88-5.73-8.18-14.64-8.11l-10.1.17zm-13-7.66l22.31.14c-.51-2.01-10.69-21.3-11.88-22.08L48.17 40.14z" fill="#FFf"/>
  <circle cx="59.75" cy="59.75" r="59.07" stroke="#fff" stroke-width="1.37" fill="none"/>
  <path d="M22.07 92.27l3.52-3.1.41.47-3.52 3.1-.41-.47zm3.28 1.37l.46.36c-.15.19-.23.38-.26.56-.03.17 0 .37.09.59.09.21.23.41.43.59.17.16.34.28.52.36.18.07.35.09.5.06s.27-.09.37-.2.16-.23.17-.37a.92.92 0 0 0-.12-.49c-.05-.12-.2-.36-.45-.74-.24-.37-.39-.65-.45-.83-.08-.24-.1-.46-.06-.66s.13-.38.28-.54a1.13 1.13 0 0 1 .6-.34c.24-.06.49-.04.75.06a2.37 2.37 0 0 1 .74.47c.25.24.43.49.55.76.11.26.15.52.1.78-.04.25-.16.49-.34.69l-.46-.37c.18-.24.25-.48.22-.71-.03-.24-.17-.48-.43-.73-.28-.26-.52-.4-.74-.41-.22-.02-.4.04-.53.18a.54.54 0 0 0-.16.43c.02.16.17.46.46.88.28.43.47.74.54.93.11.28.15.54.11.77-.03.22-.14.43-.31.61s-.38.3-.64.37c-.26.06-.52.04-.8-.05-.28-.1-.54-.26-.78-.49-.31-.29-.52-.58-.65-.86-.12-.29-.16-.58-.1-.87.05-.3.18-.56.39-.79zm4.85 3.4c.44-.64.96-1.02 1.56-1.14.59-.13 1.16 0 1.7.38.36.25.62.55.79.92.16.37.22.76.16 1.17-.06.4-.23.8-.5 1.18-.27.39-.59.69-.96.89a1.96 1.96 0 0 1-1.15.23c-.4-.04-.77-.18-1.11-.41a2.3 2.3 0 0 1-.79-.94 2.12 2.12 0 0 1-.15-1.17 2.69 2.69 0 0 1 .45-1.11zm.52.37c-.32.47-.45.92-.39 1.36a1.53 1.53 0 0 0 .66 1.05c.39.27.8.35 1.23.25.44-.09.82-.39 1.17-.88.22-.32.35-.63.41-.93.05-.31.03-.6-.09-.87-.11-.27-.3-.49-.55-.67-.36-.25-.76-.34-1.19-.27-.43.06-.85.39-1.25.96zm3.62 5.23l3.59-3.53.4.23-3.58 3.53-.41-.23zm3.78 1.96l1.96-4.27.56.26-1.95 4.27-.57-.26zm3.22 1.49l1.51-4.44 3.2 1.09-.17.52-2.62-.89-.46 1.37 2.45.83-.18.52-2.45-.83-.51 1.51 2.72.93-.18.52-3.31-1.13zm9.52 1.04l.57.3c-.25.47-.57.79-.96.97s-.82.21-1.29.1c-.49-.12-.87-.32-1.13-.59s-.42-.62-.49-1.04-.05-.84.06-1.28c.11-.47.3-.86.57-1.17s.59-.52.97-.62.77-.11 1.17-.01c.45.11.81.32 1.06.63.26.31.39.68.41 1.13h-.62c-.03-.36-.12-.64-.29-.83-.16-.2-.39-.34-.7-.42-.35-.08-.66-.07-.94.04-.27.11-.49.3-.65.56-.17.26-.29.54-.36.84-.09.39-.12.74-.08 1.06.05.31.17.57.37.77a1.51 1.51 0 0 0 .72.4c.34.08.65.05.93-.08.28-.14.51-.39.68-.76zm4.72 2.22l-.57-.05.32-3.66c-.15.12-.34.24-.57.35-.24.11-.45.19-.64.24l.05-.55c.34-.12.64-.28.9-.47.26-.2.44-.39.56-.58l.37.03-.42 4.69zm3.21-3.87l-.02-.55 3.03-.09.01.45c-.29.32-.57.76-.85 1.29a8.74 8.74 0 0 0-.63 1.65 6.37 6.37 0 0 0-.18 1.29l-.59.02c0-.37.06-.82.18-1.34a6.51 6.51 0 0 1 .55-1.53c.24-.5.51-.91.79-1.26l-2.29.07zm5.26 1.56c-.07-.55-.06-1 .01-1.35s.21-.63.41-.84.47-.33.8-.37c.25-.03.48-.01.68.07a1.19 1.19 0 0 1 .52.37c.14.18.27.4.37.66s.18.63.24 1.09c.07.54.06.99-.01 1.34s-.2.63-.4.84-.48.34-.82.38c-.44.05-.81-.06-1.11-.35-.35-.35-.58-.97-.69-1.84zm.59-.07c.09.76.24 1.26.45 1.49s.45.33.71.3.47-.19.61-.46c.15-.28.18-.79.08-1.56-.09-.76-.24-1.26-.45-1.49s-.45-.33-.71-.3c-.27.03-.46.17-.59.41-.16.31-.2.84-.1 1.61zm7.91.35l.12.54-3.02.69a.91.91 0 0 1-.03-.4c.03-.23.11-.46.24-.7.12-.23.31-.52.57-.85.4-.53.66-.93.78-1.2.13-.28.16-.53.11-.74a.77.77 0 0 0-.37-.51c-.19-.11-.42-.14-.67-.08-.27.06-.47.19-.6.39-.12.2-.15.44-.09.73l-.59.07c-.06-.44.02-.8.22-1.08.21-.29.53-.48.96-.58.44-.1.82-.06 1.13.12.31.19.51.46.59.82a1.32 1.32 0 0 1 .01.56c-.03.2-.11.41-.24.65-.13.23-.36.57-.68 1l-.52.73a1.89 1.89 0 0 0-.16.36l2.24-.52zm2.07-1.32l.55-.24c.14.26.31.44.51.53.2.08.41.09.63.02a.91.91 0 0 0 .57-.53c.11-.26.11-.55 0-.88-.1-.31-.27-.52-.5-.65-.24-.12-.5-.13-.78-.03a1.01 1.01 0 0 0-.44.28c-.11.13-.18.27-.22.43l-.54.1-.35-2.43 2.21-.75.17.52-1.76.6.17 1.28c.2-.28.45-.47.74-.56.38-.14.76-.11 1.11.07.36.18.61.48.75.9.14.4.14.79.01 1.16-.17.45-.49.77-.99.93-.4.14-.77.14-1.1 0s-.58-.39-.74-.75zm4.68-3.45l-.26-.6.6-.26.26.6-.6.26zm1.09 2.51l-.26-.6.6-.26.26.6-.6.26zm5.32-3.46l.28.48-2.7 1.54c-.07-.12-.12-.25-.14-.38-.03-.22-.03-.47.02-.73.06-.27.16-.6.31-.99.23-.62.37-1.07.4-1.37.04-.31 0-.55-.11-.74-.11-.2-.27-.33-.49-.38-.22-.06-.45-.02-.68.11-.24.14-.39.32-.45.55-.07.22-.03.47.12.72l-.54.24c-.19-.4-.22-.77-.11-1.1.12-.33.37-.61.76-.83s.76-.29 1.11-.2c.35.08.62.29.8.61a1.39 1.39 0 0 1 .18.53c.02.2 0 .43-.05.69-.06.26-.18.65-.36 1.16l-.29.84a3.1 3.1 0 0 0-.06.39l2-1.14zm.98-2.79c-.31-.45-.52-.85-.62-1.19-.1-.35-.11-.66-.03-.94.08-.27.26-.51.54-.7.21-.15.42-.23.63-.26.21-.02.43.01.64.1.2.08.42.22.63.4.21.19.45.47.72.85.31.46.52.85.62 1.2.1.34.11.65.03.93s-.26.51-.54.71c-.37.26-.75.33-1.15.21-.48-.15-.97-.58-1.47-1.31zm.49-.33c.44.63.8 1 1.1 1.11.29.11.54.08.76-.07s.33-.38.33-.69c0-.32-.22-.79-.65-1.42-.44-.63-.81-1-1.1-1.11-.3-.1-.55-.08-.77.07s-.33.37-.33.64c0 .35.22.84.66 1.47zm6.75-2.55l-.42.39-2.52-2.66c-.01.19-.05.41-.12.66a5.29 5.29 0 0 1-.24.63l-.38-.4a3.24 3.24 0 0 0 .23-.98c.03-.33.01-.59-.06-.81l.27-.26 3.24 3.43zm-.7-5.05l-.42-.37 2-2.27.34.29c.04.43.16.94.36 1.5.21.57.46 1.1.78 1.59.22.34.49.68.82 1.02l-.39.44c-.27-.25-.56-.6-.86-1.05a7 7 0 0 1-.74-1.44 6.5 6.5 0 0 1-.38-1.43l-1.51 1.72z" fill="#fff" fill-rule="nonzero"/>
</svg>